<svg xmlns="http://www.w3.org/2000/svg" viewBox="0 0 1422 800">
      <g fill="hsl(305, 77%, 40%)">
        <path d="M763.295 166.59l2.728-25.954c1.528-14.534 14.148-24.754 28.682-23.226l-2.728 25.954c-1.528 14.534-14.148 24.754-28.682 23.226zM891.523 674.55l9.762-25.43c5.466-14.242 20.95-21.136 35.192-15.67l-9.762 25.43c-5.466 14.242-20.95 21.136-35.192 15.67zM1110.412 304.712l4.586-26.005c2.567-14.562 16.027-23.987 30.59-21.419l-4.586 26.005c-2.567 14.562-16.027 23.987-30.59 21.419zM75.223 59.585L58.41 64.406c-9.414 2.7-18.933-2.576-21.633-11.991l16.813-4.821c9.414-2.7 18.933 2.576 21.633 11.991zM312.904 43.673l3.808 9.423c2.132 5.277-.34 11.099-5.616 13.231l-3.808-9.423c-2.132-5.277.34-11.099 5.616-13.231zM174.625 448.094l-5.338 12.575c-2.989 7.041-10.87 10.226-17.912 7.237l5.338-12.575c2.989-7.041 10.87-10.226 17.912-7.237zM1373.335 214.064l-18.694-8.717c-10.468-4.882-14.858-16.942-9.976-27.411l18.694 8.717c10.468 4.882 14.858 16.942 9.976 27.411zM960.299 760.62l13.512-24.376c7.567-13.651 24.239-18.432 37.89-10.865l-13.512 24.377c-7.567 13.651-24.239 18.432-37.89 10.865zM1237.96 770.827l-7.5-23.078c-4.198-12.924 2.657-26.377 15.58-30.576l7.5 23.078c4.198 12.924-2.657 26.377-15.58 30.576zM297.786 735.04l1.755 11.082c.983 6.207-3.12 11.855-9.327 12.838l-1.755-11.082c-.983-6.207 3.12-11.855 9.327-12.838zM1176.139 76.138l-1.766-25.255c-.99-14.143 9.346-26.032 23.488-27.02l1.766 25.254c.99 14.143-9.346 26.032-23.488 27.02zM74.322 749.954l-17.04 4.565c-9.541 2.557-19.047-2.931-21.604-12.473l17.04-4.565c9.541-2.557 19.047 2.931 21.604 12.473zM378.636 514.175l2.621 10.514c1.468 5.888-2.005 11.668-7.893 13.136l-2.621-10.514c-1.468-5.888 2.005-11.668 7.893-13.136zM782.999 457.815l-6.725-23.453c-3.766-13.133 3.594-26.411 16.727-30.177l6.725 23.453c3.766 13.133-3.594 26.411-16.727 30.177zM245.474 145.074l1.191 11.33c.667 6.346-3.794 11.855-10.14 12.522l-1.19-11.33c-.667-6.346 3.794-11.855 10.14-12.522zM1375.335 623.064l-18.694-8.717c-10.468-4.882-14.858-16.942-9.976-27.411l18.694 8.717c10.468 4.882 14.858 16.942 9.976 27.411zM775.999 270.815l-6.725-23.453c-3.766-13.133 3.594-26.411 16.727-30.177l6.725 23.453c3.766 13.133-3.594 26.411-16.727 30.177zM165.625 561.094l-5.338 12.575c-2.989 7.041-10.87 10.226-17.912 7.237l5.338-12.575c2.989-7.041 10.87-10.226 17.912-7.237zM1020.457 507.788l12.12-24.848c6.786-13.914 23.051-19.515 36.966-12.728l-12.12 24.848c-6.786 13.914-23.051 19.515-36.966 12.728zM1060.728 406.83l10.685-25.173c5.984-14.097 21.762-20.472 35.86-14.488l-10.686 25.174c-5.984 14.097-21.762 20.472-35.86 14.488zM1051.728 644.83l10.685-25.173c5.984-14.097 21.762-20.472 35.86-14.488l-10.686 25.174c-5.984 14.097-21.762 20.472-35.86 14.488zM645.093 646.546l-18.293 1.6c-10.244.897-18.997-6.448-19.893-16.692l18.293-1.6c10.244-.897 18.997 6.448 19.893 16.692zM525.324 163.566l-6.085 12.477c-3.408 6.987-11.576 9.8-18.563 6.391l6.085-12.477c3.408-6.987 11.576-9.8 18.563-6.391zM669.193 195.708l-19.238-4.09c-10.773-2.289-17.438-12.553-15.148-23.326l19.238 4.09c10.773 2.289 17.438 12.553 15.148 23.326zM569.7 735.692l-8.837 11.726c-4.948 6.567-13.996 7.839-20.563 2.89l8.837-11.726c4.948-6.567 13.996-7.839 20.563-2.89zM1095.248 761.818l7.874-25.755c4.41-14.423 19.207-22.29 33.63-17.881l-7.874 25.755c-4.41 14.423-19.207 22.29-33.63 17.881zM428.49 731.033l1.195 11.37c.669 6.366-3.808 11.895-10.175 12.564l-1.195-11.37c-.669-6.366 3.808-11.895 10.175-12.564zM601.355 523.49l-12.48 9.75c-6.989 5.46-16.77 4.259-22.23-2.73l12.48-9.75c6.989-5.46 16.77-4.259 22.23 2.73zM939.68 576.017l13.05-24.541c7.307-13.743 23.846-18.8 37.59-11.493l-13.05 24.541c-7.307 13.743-23.846 18.8-37.59 11.493zM277.786 384.04l1.755 11.082c.983 6.207-3.12 11.855-9.327 12.838l-1.755-11.082c-.983-6.207 3.12-11.855 9.327-12.838zM453.416 270.216l-.42 11.993c-.234 6.717-5.695 11.81-12.412 11.575l.42-11.993c.234-6.717 5.695-11.81 12.412-11.575zM1376.335 351.064l-18.694-8.717c-10.468-4.882-14.858-16.942-9.976-27.411l18.694 8.717c10.468 4.882 14.858 16.942 9.976 27.411zM841.159 348.375l6.923-25.836c3.877-14.469 18.29-22.791 32.76-18.914l-6.924 25.836c-3.877 14.469-18.29 22.791-32.76 18.914zM822.288 772.601l2.73-25.966c1.527-14.54 14.153-24.764 28.694-23.236l-2.73 25.966c-1.527 14.54-14.153 24.764-28.694 23.236zM1257.112 294.149l-11.35-20.474c-6.355-11.466-2.34-25.468 9.126-31.824l11.35 20.474c6.355 11.466 2.34 25.468-9.126 31.824zM1375.335 752.064l-18.694-8.717c-10.468-4.882-14.858-16.942-9.976-27.411l18.694 8.717c10.468 4.882 14.858 16.942 9.976 27.411zM1222.96 419.827l-7.5-23.078c-4.198-12.924 2.657-26.377 15.58-30.576l7.5 23.078c4.198 12.924-2.657 26.377-15.58 30.576zM723.248 552.323l-18.328-10.16c-10.263-5.688-13.857-18.222-8.168-28.486l18.328 10.16c10.263 5.688 13.857 18.222 8.168 28.486zM1050.596 76.746l18.425-21.958c10.318-12.297 28.087-13.852 40.383-3.534l-18.425 21.958c-10.318 12.297-28.087 13.852-40.383 3.534zM768.564 670.056l-11.674-20.22c-6.537-11.322-2.777-25.355 8.546-31.892l11.674 20.22c6.537 11.322 2.777 25.355-8.546 31.892zM95.374 163.897l-14.258 8.232c-7.985 4.61-17.88 1.958-22.49-6.026l14.258-8.232c7.985-4.61 17.88-1.958 22.49 6.026z"></path>
      </g>
      <g fill="none" stroke="hsl(305, 77%, 40%)" strokeWidth="3">
        <path
          strokeWidth="1.584"
          d="M1137.412 533.712l4.586-26.005c2.567-14.562 16.027-23.987 30.59-21.419l-4.586 26.005c-2.567 14.562-16.027 23.987-30.59 21.419z"
        ></path>
        <path
          strokeWidth="0.819"
          d="M531.61 383.107l-5.33 12.558c-2.986 7.033-10.857 10.213-17.89 7.228l5.33-12.558c2.986-7.033 10.857-10.213 17.89-7.228z"
        ></path>
        <path
          strokeWidth="1.173"
          d="M1392.328 75.327l-19.193-3.73c-10.749-2.09-17.552-12.176-15.463-22.924l19.193 3.73c10.749 2.09 17.552 12.176 15.463 22.924z"
        ></path>
        <path
          strokeWidth="0.765"
          d="M494.685 617.707l-2.43 12.509c-1.362 7.004-7.936 11.438-14.94 10.077l2.43-12.509c1.362-7.004 7.936-11.438 14.94-10.077z"
        ></path>
        <path
          strokeWidth="1.517"
          d="M1175.613 195.282l-2.203-25.18c-1.234-14.101 8.876-26.15 22.977-27.384l2.203 25.18c1.234 14.101-8.876 26.15-22.977 27.384z"
        ></path>
        <path
          strokeWidth="0.765"
          d="M485.685 490.707l-2.43 12.509c-1.362 7.004-7.936 11.438-14.94 10.077l2.43-12.509c1.362-7.004 7.936-11.438 14.94-10.077z"
        ></path>
        <path
          strokeWidth="1.058"
          d="M71.322 520.954l-17.04 4.565c-9.541 2.557-19.047-2.931-21.604-12.473l17.04-4.565c9.541-2.557 19.047 2.931 21.604 12.473z"
        ></path>
        <path
          strokeWidth="1.405"
          d="M1271.112 544.149l-11.35-20.474c-6.355-11.466-2.34-25.468 9.126-31.824l11.35 20.474c6.355 11.466 2.34 25.468-9.126 31.824z"
        ></path>
        <path
          strokeWidth="0.663"
          d="M394.313 387.106l2.107 10.84c1.18 6.071-2.662 11.768-8.733 12.948l-2.107-10.84c-1.18-6.071 2.662-11.768 8.733-12.948z"
        ></path>
        <path
          strokeWidth="1.567"
          d="M829.288 568.601l2.73-25.966c1.527-14.54 14.153-24.764 28.694-23.236l-2.73 25.966c-1.527 14.54-14.153 24.764-28.694 23.236z"
        ></path>
        <path
          strokeWidth="0.673"
          d="M271.786 510.04l1.755 11.082c.983 6.207-3.12 11.855-9.327 12.838l-1.755-11.082c-.983-6.207 3.12-11.855 9.327-12.838z"
        ></path>
        <path
          strokeWidth="1.102"
          d="M664.093 427.546l-18.293 1.6c-10.244.897-18.997-6.448-19.893-16.692l18.293-1.6c10.244-.897 18.997 6.448 19.893 16.692z"
        ></path>
        <path
          strokeWidth="1.059"
          d="M596.258 65.292l-17.123 4.27c-9.59 2.39-19.003-3.265-21.393-12.854l17.123-4.27c9.59-2.39 19.003 3.265 21.393 12.854z"
        ></path>
        <path
          strokeWidth="0.993"
          d="M81.491 638.214l-14.478 8.025c-8.108 4.495-18.01 1.655-22.504-6.453l14.478-8.025c8.108-4.495 18.01-1.655 22.504 6.453z"
        ></path>
        <path
          strokeWidth="0.772"
          d="M195.168 233.904l-2.896 12.544c-1.622 7.025-8.415 11.27-15.44 9.648l2.896-12.544c1.622-7.025 8.415-11.27 15.44-9.648z"
        ></path>
        <path
          strokeWidth="1.659"
          d="M1018.457 201.788l12.12-24.848c6.786-13.914 23.051-19.515 36.966-12.728l-12.12 24.848c-6.786 13.914-23.051 19.515-36.966 12.728z"
        ></path>
        <path
          strokeWidth="0.656"
          d="M317.075 267.166l2.273 10.697c1.274 5.99-2.432 11.698-8.423 12.97l-2.273-10.696c-1.274-5.99 2.432-11.698 8.423-12.97z"
        ></path>
        <path
          strokeWidth="1.257"
          d="M707.248 765.323l-18.328-10.16c-10.263-5.688-13.857-18.222-8.168-28.486l18.328 10.16c10.263 5.688 13.857 18.222 8.168 28.486z"
        ></path>
        <path
          strokeWidth="0.732"
          d="M234.936 632.256l-.851 12.17c-.477 6.814-6.206 11.794-13.02 11.318l.85-12.17c.477-6.814 6.206-11.794 13.02-11.318z"
        ></path>
        <path
          strokeWidth="1.058"
          d="M73.322 400.954l-17.04 4.565c-9.541 2.557-19.047-2.931-21.604-12.473l17.04-4.565c9.541-2.557 19.047 2.931 21.604 12.473z"
        ></path>
        <path
          strokeWidth="1.456"
          d="M1213.96 657.827l-7.5-23.078c-4.198-12.924 2.657-26.377 15.58-30.576l7.5 23.078c4.198 12.924-2.657 26.377-15.58 30.576z"
        ></path>
        <path
          strokeWidth="0.95"
          d="M601.355 284.49l-12.48 9.75c-6.989 5.46-16.77 4.259-22.23-2.73l12.48-9.75c6.989-5.46 16.77-4.259 22.23 2.73z"
        ></path>
        <path
          strokeWidth="1.181"
          d="M1383.204 473.717l-19.25-4.092c-10.78-2.291-17.45-12.562-15.158-23.342l19.25 4.092c10.78 2.291 17.45 12.562 15.158 23.342z"
        ></path>
        <path
          strokeWidth="1.634"
          d="M884.523 209.55l9.762-25.43c5.466-14.242 20.95-21.136 35.192-15.67l-9.762 25.43c-5.466 14.242-20.95 21.136-35.192 15.67z"
        ></path>
        <path
          strokeWidth="0.82"
          d="M178.625 730.094l-5.338 12.575c-2.989 7.041-10.87 10.226-17.912 7.237l5.338-12.575c2.989-7.041 10.87-10.226 17.912-7.237z"
        ></path>
        <path
          strokeWidth="0.648"
          d="M353.628 627.21l2.613 10.483c1.464 5.87-1.999 11.633-7.869 13.096l-2.613-10.482c-1.464-5.87 1.999-11.633 7.869-13.096z"
        ></path>
        <path
          strokeWidth="1.058"
          d="M76.322 279.954l-17.04 4.565c-9.541 2.557-19.047-2.931-21.604-12.473l17.04-4.565c9.541-2.557 19.047 2.931 21.604 12.473z"
        ></path>
        <path
          strokeWidth="1.672"
          d="M960.299 319.62l13.512-24.376c7.567-13.651 24.239-18.432 37.89-10.865l-13.512 24.377c-7.567 13.651-24.239 18.432-37.89 10.865z"
        ></path>
        <path
          strokeWidth="0.82"
          d="M176.625 336.094l-5.338 12.575c-2.989 7.041-10.87 10.226-17.912 7.237l5.338-12.575c2.989-7.041 10.87-10.226 17.912-7.237z"
        ></path>
        <path
          strokeWidth="0.757"
          d="M453.406 46.667l-2.191 12.429c-1.228 6.96-7.66 11.465-14.621 10.237l2.191-12.429c1.228-6.96 7.66-11.465 14.621-10.237z"
        ></path>
        <path
          strokeWidth="1.789"
          d="M812.02 59.89l24.428-17.104c13.68-9.578 31.953-6.356 41.531 7.323l-24.427 17.105c-13.68 9.578-31.953 6.356-41.531-7.323z"
        ></path>
        <path
          strokeWidth="1.812"
          d="M931.291 67.023l26.158-15.102c14.648-8.457 32.802-3.592 41.26 11.056L972.55 78.079c-14.648 8.457-32.802 3.592-41.26-11.056z"
        ></path>
        <path
          strokeWidth="1.655"
          d="M907.51 448.748l12.093-24.794c6.772-13.885 23.002-19.474 36.887-12.702l-12.093 24.794c-6.772 13.885-23.002 19.474-36.887 12.702z"
        ></path>
        <path
          strokeWidth="1.352"
          d="M1288.28 106.394l-14.782-17.004c-8.277-9.521-7.299-23.507 2.223-31.784l14.78 17.004c8.278 9.521 7.3 23.507-2.222 31.784z"
        ></path>
        <path
          strokeWidth="0.778"
          d="M186.43 47.983l-3.137 12.586c-1.757 7.048-8.676 11.205-15.724 9.448l3.138-12.586c1.757-7.048 8.676-11.205 15.724-9.448z"
        ></path>
        <path
          strokeWidth="1.257"
          d="M722.248 343.323l-18.328-10.16c-10.263-5.688-13.857-18.222-8.168-28.486l18.328 10.16c10.263 5.688 13.857 18.222 8.168 28.486z"
        ></path>
        <path
          strokeWidth="1.469"
          d="M698.514 81.81l-6.335-23.643c-3.547-13.239 4.068-26.429 17.307-29.976l6.335 23.642c3.547 13.239-4.068 26.429-17.307 29.976z"
        ></path>
        <path
          strokeWidth="0.641"
          d="M377.188 157.267l2.943 10.262c1.648 5.746-1.573 11.556-7.32 13.204l-2.942-10.262c-1.648-5.746 1.573-11.556 7.32-13.204z"
        ></path>
      </g>
    </svg>