    <svg
      xmlns="http://www.w3.org/2000/svg"
      opacity="0.38"
      viewBox="0 0 2400 800"
    >
      <defs>
        <linearGradient id="sssurf-grad" x1="50%" x2="50%" y1="0%" y2="100%">
          <stop offset="0%" stopColor="hsl(230, 55%, 50%)"></stop>
          <stop offset="100%" stopColor="hsl(230, 55%, 70%)"></stop>
        </linearGradient>
      </defs>
      <g fill="url(#sssurf-grad)" transform="translate(4.331 235.501)">
        <path
          d="M-10 35c102.083 11.875 287.917 68.667 490 57C682.083 80.333 760-20.375 960-21s280 106.875 480 110 280-98.333 480-95c200 3.333 327.917 21.208 480 111 152.083 89.792 854.167 149.167 250 320S156.25 820.833-500 925"
          opacity="0.05"
        ></path>
        <path
          d="M-10 60c102.083 11.875 287.917 68.667 490 57C682.083 105.333 760 4.625 960 4s280 106.875 480 110 280-98.333 480-95c200 3.333 327.917 21.208 480 111 152.083 89.792 854.167 149.167 250 320S156.25 845.833-500 950"
          opacity="0.16"
        ></path>
        <path
          d="M-10 85c102.083 11.875 287.917 68.667 490 57C682.083 130.333 760 29.625 960 29s280 106.875 480 110 280-98.333 480-95c200 3.333 327.917 21.208 480 111 152.083 89.792 854.167 149.167 250 320S156.25 870.833-500 975"
          opacity="0.26"
        ></path>
        <path
          d="M-10 110c102.083 11.875 287.917 68.667 490 57C682.083 155.333 760 54.625 960 54s280 106.875 480 110 280-98.333 480-95c200 3.333 327.917 21.208 480 111 152.083 89.792 854.167 149.167 250 320S156.25 895.833-500 1000"
          opacity="0.37"
        ></path>
        <path
          d="M-10 135c102.083 11.875 287.917 68.667 490 57C682.083 180.333 760 79.625 960 79s280 106.875 480 110 280-98.333 480-95c200 3.333 327.917 21.208 480 111 152.083 89.792 854.167 149.167 250 320S156.25 920.833-500 1025"
          opacity="0.47"
        ></path>
        <path
          d="M-10 160c102.083 11.875 287.917 68.667 490 57 202.083-11.667 280-112.375 480-113s280 106.875 480 110 280-98.333 480-95c200 3.333 327.917 21.208 480 111 152.083 89.792 854.167 149.167 250 320S156.25 945.833-500 1050"
          opacity="0.58"
        ></path>
        <path
          d="M-10 185c102.083 11.875 287.917 68.667 490 57 202.083-11.667 280-112.375 480-113s280 106.875 480 110 280-98.333 480-95c200 3.333 327.917 21.208 480 111 152.083 89.792 854.167 149.167 250 320S156.25 970.833-500 1075"
          opacity="0.68"
        ></path>
        <path
          d="M-10 210c102.083 11.875 287.917 68.667 490 57 202.083-11.667 280-112.375 480-113s280 106.875 480 110 280-98.333 480-95c200 3.333 327.917 21.208 480 111 152.083 89.792 854.167 149.167 250 320S156.25 995.833-500 1100"
          opacity="0.79"
        ></path>
        <path
          d="M-10 235c102.083 11.875 287.917 68.667 490 57 202.083-11.667 280-112.375 480-113s280 106.875 480 110 280-98.333 480-95c200 3.333 327.917 21.208 480 111 152.083 89.792 854.167 149.167 250 320S156.25 1020.833-500 1125"
          opacity="0.89"
        ></path>
        <path
          d="M-10 260c102.083 11.875 287.917 68.667 490 57 202.083-11.667 280-112.375 480-113s280 106.875 480 110 280-98.333 480-95c200 3.333 327.917 21.208 480 111 152.083 89.792 854.167 149.167 250 320S156.25 1045.833-500 1150"
          opacity="1"
        ></path>
      </g>
    </svg>