 <svg xmlns="http://www.w3.org/2000/svg" viewBox="0 0 1422 800">
      <g fill="none" stroke="hsl(335, 77%, 50%)" strokeWidth="2.5">
        <path d="M58 0L0 58" opacity="0.05"></path>
        <path d="M58 0L116 58" opacity="0.09"></path>
        <path d="M174 0L116 58" opacity="0.13"></path>
        <path d="M174 0L232 58" opacity="0.17"></path>
        <path d="M290 0L232 58" opacity="0.2"></path>
        <path d="M290 0L348 58" opacity="0.24"></path>
        <path d="M348 0L406 58" opacity="0.28"></path>
        <path d="M464 0L406 58" opacity="0.32"></path>
        <path d="M464 0L522 58" opacity="0.36"></path>
        <path d="M580 0L522 58" opacity="0.4"></path>
        <path d="M580 0L638 58" opacity="0.44"></path>
        <path d="M696 0L638 58" opacity="0.48"></path>
        <path d="M754 0L696 58" opacity="0.51"></path>
        <path d="M754 0L812 58" opacity="0.55"></path>
        <path d="M812 0L870 58" opacity="0.59"></path>
        <path d="M928 0L870 58" opacity="0.63"></path>
        <path d="M928 0L986 58" opacity="0.67"></path>
        <path d="M986 0L1044 58" opacity="0.71"></path>
        <path d="M1044 0L1102 58" opacity="0.75"></path>
        <path d="M1102 0L1160 58" opacity="0.79"></path>
        <path d="M1160 0L1218 58" opacity="0.82"></path>
        <path d="M1276 0L1218 58" opacity="0.86"></path>
        <path d="M1276 0L1334 58" opacity="0.9"></path>
        <path d="M1334 0L1392 58" opacity="0.94"></path>
        <path d="M1392 0L1450 58" opacity="0.98"></path>
        <path d="M0 58L58 116" opacity="0.05"></path>
        <path d="M116 58L58 116" opacity="0.09"></path>
        <path d="M116 58L174 116" opacity="0.13"></path>
        <path d="M174 58L232 116" opacity="0.17"></path>
        <path d="M290 58L232 116" opacity="0.2"></path>
        <path d="M290 58L348 116" opacity="0.24"></path>
        <path d="M406 58L348 116" opacity="0.28"></path>
        <path d="M464 58L406 116" opacity="0.32"></path>
        <path d="M464 58L522 116" opacity="0.36"></path>
        <path d="M522 58L580 116" opacity="0.4"></path>
        <path d="M638 58L580 116" opacity="0.44"></path>
        <path d="M638 58L696 116" opacity="0.48"></path>
        <path d="M696 58L754 116" opacity="0.51"></path>
        <path d="M812 58L754 116" opacity="0.55"></path>
        <path d="M812 58L870 116" opacity="0.59"></path>
        <path d="M928 58L870 116" opacity="0.63"></path>
        <path d="M986 58L928 116" opacity="0.67"></path>
        <path d="M986 58L1044 116" opacity="0.71"></path>
        <path d="M1044 58L1102 116" opacity="0.75"></path>
        <path d="M1102 58L1160 116" opacity="0.79"></path>
        <path d="M1160 58L1218 116" opacity="0.82"></path>
        <path d="M1276 58L1218 116" opacity="0.86"></path>
        <path d="M1276 58L1334 116" opacity="0.9"></path>
        <path d="M1334 58L1392 116" opacity="0.94"></path>
        <path d="M1450 58L1392 116" opacity="0.98"></path>
        <path d="M58 116L0 174" opacity="0.05"></path>
        <path d="M116 116L58 174" opacity="0.09"></path>
        <path d="M174 116L116 174" opacity="0.13"></path>
        <path d="M174 116L232 174" opacity="0.17"></path>
        <path d="M232 116L290 174" opacity="0.2"></path>
        <path d="M348 116L290 174" opacity="0.24"></path>
        <path d="M348 116L406 174" opacity="0.28"></path>
        <path d="M464 116L406 174" opacity="0.32"></path>
        <path d="M464 116L522 174" opacity="0.36"></path>
        <path d="M522 116L580 174" opacity="0.4"></path>
        <path d="M580 116L638 174" opacity="0.44"></path>
        <path d="M638 116L696 174" opacity="0.48"></path>
        <path d="M696 116L754 174" opacity="0.51"></path>
        <path d="M812 116L754 174" opacity="0.55"></path>
        <path d="M812 116L870 174" opacity="0.59"></path>
        <path d="M870 116L928 174" opacity="0.63"></path>
        <path d="M928 116L986 174" opacity="0.67"></path>
        <path d="M986 116L1044 174" opacity="0.71"></path>
        <path d="M1044 116L1102 174" opacity="0.75"></path>
        <path d="M1102 116L1160 174" opacity="0.79"></path>
        <path d="M1218 116L1160 174" opacity="0.82"></path>
        <path d="M1218 116L1276 174" opacity="0.86"></path>
        <path d="M1276 116L1334 174" opacity="0.9"></path>
        <path d="M1334 116L1392 174" opacity="0.94"></path>
        <path d="M1392 116L1450 174" opacity="0.98"></path>
        <path d="M0 174L58 232" opacity="0.05"></path>
        <path d="M58 174L116 232" opacity="0.09"></path>
        <path d="M174 174L116 232" opacity="0.13"></path>
        <path d="M232 174L174 232" opacity="0.17"></path>
        <path d="M232 174L290 232" opacity="0.2"></path>
        <path d="M290 174L348 232" opacity="0.24"></path>
        <path d="M406 174L348 232" opacity="0.28"></path>
        <path d="M406 174L464 232" opacity="0.32"></path>
        <path d="M464 174L522 232" opacity="0.36"></path>
        <path d="M522 174L580 232" opacity="0.4"></path>
        <path d="M638 174L580 232" opacity="0.44"></path>
        <path d="M696 174L638 232" opacity="0.48"></path>
        <path d="M696 174L754 232" opacity="0.51"></path>
        <path d="M754 174L812 232" opacity="0.55"></path>
        <path d="M812 174L870 232" opacity="0.59"></path>
        <path d="M928 174L870 232" opacity="0.63"></path>
        <path d="M986 174L928 232" opacity="0.67"></path>
        <path d="M986 174L1044 232" opacity="0.71"></path>
        <path d="M1044 174L1102 232" opacity="0.75"></path>
        <path d="M1102 174L1160 232" opacity="0.79"></path>
        <path d="M1218 174L1160 232" opacity="0.82"></path>
        <path d="M1218 174L1276 232" opacity="0.86"></path>
        <path d="M1276 174L1334 232" opacity="0.9"></path>
        <path d="M1334 174L1392 232" opacity="0.94"></path>
        <path d="M1392 174L1450 232" opacity="0.98"></path>
        <path d="M58 232L0 290" opacity="0.05"></path>
        <path d="M58 232L116 290" opacity="0.09"></path>
        <path d="M116 232L174 290" opacity="0.13"></path>
        <path d="M174 232L232 290" opacity="0.17"></path>
        <path d="M290 232L232 290" opacity="0.2"></path>
        <path d="M348 232L290 290" opacity="0.24"></path>
        <path d="M406 232L348 290" opacity="0.28"></path>
        <path d="M464 232L406 290" opacity="0.32"></path>
        <path d="M464 232L522 290" opacity="0.36"></path>
        <path d="M580 232L522 290" opacity="0.4"></path>
        <path d="M580 232L638 290" opacity="0.44"></path>
        <path d="M638 232L696 290" opacity="0.48"></path>
        <path d="M696 232L754 290" opacity="0.51"></path>
        <path d="M754 232L812 290" opacity="0.55"></path>
        <path d="M812 232L870 290" opacity="0.59"></path>
        <path d="M870 232L928 290" opacity="0.63"></path>
        <path d="M986 232L928 290" opacity="0.67"></path>
        <path d="M986 232L1044 290" opacity="0.71"></path>
        <path d="M1044 232L1102 290" opacity="0.75"></path>
        <path d="M1102 232L1160 290" opacity="0.79"></path>
        <path d="M1160 232L1218 290" opacity="0.82"></path>
        <path d="M1276 232L1218 290" opacity="0.86"></path>
        <path d="M1276 232L1334 290" opacity="0.9"></path>
        <path d="M1392 232L1334 290" opacity="0.94"></path>
        <path d="M1392 232L1450 290" opacity="0.98"></path>
        <path d="M0 290L58 348" opacity="0.05"></path>
        <path d="M116 290L58 348" opacity="0.09"></path>
        <path d="M116 290L174 348" opacity="0.13"></path>
        <path d="M232 290L174 348" opacity="0.17"></path>
        <path d="M232 290L290 348" opacity="0.2"></path>
        <path d="M290 290L348 348" opacity="0.24"></path>
        <path d="M406 290L348 348" opacity="0.28"></path>
        <path d="M464 290L406 348" opacity="0.32"></path>
        <path d="M522 290L464 348" opacity="0.36"></path>
        <path d="M522 290L580 348" opacity="0.4"></path>
        <path d="M580 290L638 348" opacity="0.44"></path>
        <path d="M696 290L638 348" opacity="0.48"></path>
        <path d="M696 290L754 348" opacity="0.51"></path>
        <path d="M754 290L812 348" opacity="0.55"></path>
        <path d="M812 290L870 348" opacity="0.59"></path>
        <path d="M870 290L928 348" opacity="0.63"></path>
        <path d="M986 290L928 348" opacity="0.67"></path>
        <path d="M1044 290L986 348" opacity="0.71"></path>
        <path d="M1044 290L1102 348" opacity="0.75"></path>
        <path d="M1102 290L1160 348" opacity="0.79"></path>
        <path d="M1160 290L1218 348" opacity="0.82"></path>
        <path d="M1218 290L1276 348" opacity="0.86"></path>
        <path d="M1276 290L1334 348" opacity="0.9"></path>
        <path d="M1392 290L1334 348" opacity="0.94"></path>
        <path d="M1392 290L1450 348" opacity="0.98"></path>
        <path d="M0 348L58 406" opacity="0.05"></path>
        <path d="M116 348L58 406" opacity="0.09"></path>
        <path d="M116 348L174 406" opacity="0.13"></path>
        <path d="M174 348L232 406" opacity="0.17"></path>
        <path d="M232 348L290 406" opacity="0.2"></path>
        <path d="M290 348L348 406" opacity="0.24"></path>
        <path d="M406 348L348 406" opacity="0.28"></path>
        <path d="M406 348L464 406" opacity="0.32"></path>
        <path d="M464 348L522 406" opacity="0.36"></path>
        <path d="M522 348L580 406" opacity="0.4"></path>
        <path d="M638 348L580 406" opacity="0.44"></path>
        <path d="M696 348L638 406" opacity="0.48"></path>
        <path d="M696 348L754 406" opacity="0.51"></path>
        <path d="M754 348L812 406" opacity="0.55"></path>
        <path d="M812 348L870 406" opacity="0.59"></path>
        <path d="M928 348L870 406" opacity="0.63"></path>
        <path d="M928 348L986 406" opacity="0.67"></path>
        <path d="M1044 348L986 406" opacity="0.71"></path>
        <path d="M1044 348L1102 406" opacity="0.75"></path>
        <path d="M1102 348L1160 406" opacity="0.79"></path>
        <path d="M1218 348L1160 406" opacity="0.82"></path>
        <path d="M1276 348L1218 406" opacity="0.86"></path>
        <path d="M1276 348L1334 406" opacity="0.9"></path>
        <path d="M1334 348L1392 406" opacity="0.94"></path>
        <path d="M1450 348L1392 406" opacity="0.98"></path>
        <path d="M0 406L58 464" opacity="0.05"></path>
        <path d="M116 406L58 464" opacity="0.09"></path>
        <path d="M116 406L174 464" opacity="0.13"></path>
        <path d="M232 406L174 464" opacity="0.17"></path>
        <path d="M232 406L290 464" opacity="0.2"></path>
        <path d="M290 406L348 464" opacity="0.24"></path>
        <path d="M348 406L406 464" opacity="0.28"></path>
        <path d="M406 406L464 464" opacity="0.32"></path>
        <path d="M464 406L522 464" opacity="0.36"></path>
        <path d="M580 406L522 464" opacity="0.4"></path>
        <path d="M580 406L638 464" opacity="0.44"></path>
        <path d="M696 406L638 464" opacity="0.48"></path>
        <path d="M696 406L754 464" opacity="0.51"></path>
        <path d="M754 406L812 464" opacity="0.55"></path>
        <path d="M812 406L870 464" opacity="0.59"></path>
        <path d="M870 406L928 464" opacity="0.63"></path>
        <path d="M986 406L928 464" opacity="0.67"></path>
        <path d="M986 406L1044 464" opacity="0.71"></path>
        <path d="M1044 406L1102 464" opacity="0.75"></path>
        <path d="M1160 406L1102 464" opacity="0.79"></path>
        <path d="M1160 406L1218 464" opacity="0.82"></path>
        <path d="M1276 406L1218 464" opacity="0.86"></path>
        <path d="M1276 406L1334 464" opacity="0.9"></path>
        <path d="M1334 406L1392 464" opacity="0.94"></path>
        <path d="M1392 406L1450 464" opacity="0.98"></path>
        <path d="M58 464L0 522" opacity="0.05"></path>
        <path d="M58 464L116 522" opacity="0.09"></path>
        <path d="M174 464L116 522" opacity="0.13"></path>
        <path d="M174 464L232 522" opacity="0.17"></path>
        <path d="M232 464L290 522" opacity="0.2"></path>
        <path d="M290 464L348 522" opacity="0.24"></path>
        <path d="M348 464L406 522" opacity="0.28"></path>
        <path d="M406 464L464 522" opacity="0.32"></path>
        <path d="M464 464L522 522" opacity="0.36"></path>
        <path d="M522 464L580 522" opacity="0.4"></path>
        <path d="M580 464L638 522" opacity="0.44"></path>
        <path d="M696 464L638 522" opacity="0.48"></path>
        <path d="M696 464L754 522" opacity="0.51"></path>
        <path d="M812 464L754 522" opacity="0.55"></path>
        <path d="M870 464L812 522" opacity="0.59"></path>
        <path d="M870 464L928 522" opacity="0.63"></path>
        <path d="M928 464L986 522" opacity="0.67"></path>
        <path d="M1044 464L986 522" opacity="0.71"></path>
        <path d="M1044 464L1102 522" opacity="0.75"></path>
        <path d="M1102 464L1160 522" opacity="0.79"></path>
        <path d="M1218 464L1160 522" opacity="0.82"></path>
        <path d="M1218 464L1276 522" opacity="0.86"></path>
        <path d="M1276 464L1334 522" opacity="0.9"></path>
        <path d="M1334 464L1392 522" opacity="0.94"></path>
        <path d="M1450 464L1392 522" opacity="0.98"></path>
        <path d="M0 522L58 580" opacity="0.05"></path>
        <path d="M58 522L116 580" opacity="0.09"></path>
        <path d="M174 522L116 580" opacity="0.13"></path>
        <path d="M174 522L232 580" opacity="0.17"></path>
        <path d="M232 522L290 580" opacity="0.2"></path>
        <path d="M290 522L348 580" opacity="0.24"></path>
        <path d="M348 522L406 580" opacity="0.28"></path>
        <path d="M406 522L464 580" opacity="0.32"></path>
        <path d="M464 522L522 580" opacity="0.36"></path>
        <path d="M522 522L580 580" opacity="0.4"></path>
        <path d="M580 522L638 580" opacity="0.44"></path>
        <path d="M638 522L696 580" opacity="0.48"></path>
        <path d="M754 522L696 580" opacity="0.51"></path>
        <path d="M754 522L812 580" opacity="0.55"></path>
        <path d="M812 522L870 580" opacity="0.59"></path>
        <path d="M928 522L870 580" opacity="0.63"></path>
        <path d="M928 522L986 580" opacity="0.67"></path>
        <path d="M1044 522L986 580" opacity="0.71"></path>
        <path d="M1102 522L1044 580" opacity="0.75"></path>
        <path d="M1102 522L1160 580" opacity="0.79"></path>
        <path d="M1160 522L1218 580" opacity="0.82"></path>
        <path d="M1218 522L1276 580" opacity="0.86"></path>
        <path d="M1276 522L1334 580" opacity="0.9"></path>
        <path d="M1334 522L1392 580" opacity="0.94"></path>
        <path d="M1392 522L1450 580" opacity="0.98"></path>
        <path d="M0 580L58 638" opacity="0.05"></path>
        <path d="M58 580L116 638" opacity="0.09"></path>
        <path d="M116 580L174 638" opacity="0.13"></path>
        <path d="M174 580L232 638" opacity="0.17"></path>
        <path d="M232 580L290 638" opacity="0.2"></path>
        <path d="M290 580L348 638" opacity="0.24"></path>
        <path d="M348 580L406 638" opacity="0.28"></path>
        <path d="M464 580L406 638" opacity="0.32"></path>
        <path d="M464 580L522 638" opacity="0.36"></path>
        <path d="M522 580L580 638" opacity="0.4"></path>
        <path d="M638 580L580 638" opacity="0.44"></path>
        <path d="M696 580L638 638" opacity="0.48"></path>
        <path d="M696 580L754 638" opacity="0.51"></path>
        <path d="M754 580L812 638" opacity="0.55"></path>
        <path d="M812 580L870 638" opacity="0.59"></path>
        <path d="M870 580L928 638" opacity="0.63"></path>
        <path d="M928 580L986 638" opacity="0.67"></path>
        <path d="M1044 580L986 638" opacity="0.71"></path>
        <path d="M1102 580L1044 638" opacity="0.75"></path>
        <path d="M1102 580L1160 638" opacity="0.79"></path>
        <path d="M1218 580L1160 638" opacity="0.82"></path>
        <path d="M1276 580L1218 638" opacity="0.86"></path>
        <path d="M1276 580L1334 638" opacity="0.9"></path>
        <path d="M1392 580L1334 638" opacity="0.94"></path>
        <path d="M1392 580L1450 638" opacity="0.98"></path>
        <path d="M0 638L58 696" opacity="0.05"></path>
        <path d="M58 638L116 696" opacity="0.09"></path>
        <path d="M116 638L174 696" opacity="0.13"></path>
        <path d="M174 638L232 696" opacity="0.17"></path>
        <path d="M290 638L232 696" opacity="0.2"></path>
        <path d="M290 638L348 696" opacity="0.24"></path>
        <path d="M348 638L406 696" opacity="0.28"></path>
        <path d="M406 638L464 696" opacity="0.32"></path>
        <path d="M522 638L464 696" opacity="0.36"></path>
        <path d="M580 638L522 696" opacity="0.4"></path>
        <path d="M580 638L638 696" opacity="0.44"></path>
        <path d="M638 638L696 696" opacity="0.48"></path>
        <path d="M754 638L696 696" opacity="0.51"></path>
        <path d="M812 638L754 696" opacity="0.55"></path>
        <path d="M812 638L870 696" opacity="0.59"></path>
        <path d="M870 638L928 696" opacity="0.63"></path>
        <path d="M928 638L986 696" opacity="0.67"></path>
        <path d="M986 638L1044 696" opacity="0.71"></path>
        <path d="M1044 638L1102 696" opacity="0.75"></path>
        <path d="M1160 638L1102 696" opacity="0.79"></path>
        <path d="M1160 638L1218 696" opacity="0.82"></path>
        <path d="M1276 638L1218 696" opacity="0.86"></path>
        <path d="M1276 638L1334 696" opacity="0.9"></path>
        <path d="M1392 638L1334 696" opacity="0.94"></path>
        <path d="M1392 638L1450 696" opacity="0.98"></path>
        <path d="M0 696L58 754" opacity="0.05"></path>
        <path d="M58 696L116 754" opacity="0.09"></path>
        <path d="M116 696L174 754" opacity="0.13"></path>
        <path d="M232 696L174 754" opacity="0.17"></path>
        <path d="M232 696L290 754" opacity="0.2"></path>
        <path d="M348 696L290 754" opacity="0.24"></path>
        <path d="M406 696L348 754" opacity="0.28"></path>
        <path d="M406 696L464 754" opacity="0.32"></path>
        <path d="M522 696L464 754" opacity="0.36"></path>
        <path d="M522 696L580 754" opacity="0.4"></path>
        <path d="M580 696L638 754" opacity="0.44"></path>
        <path d="M638 696L696 754" opacity="0.48"></path>
        <path d="M696 696L754 754" opacity="0.51"></path>
        <path d="M754 696L812 754" opacity="0.55"></path>
        <path d="M812 696L870 754" opacity="0.59"></path>
        <path d="M928 696L870 754" opacity="0.63"></path>
        <path d="M986 696L928 754" opacity="0.67"></path>
        <path d="M1044 696L986 754" opacity="0.71"></path>
        <path d="M1044 696L1102 754" opacity="0.75"></path>
        <path d="M1160 696L1102 754" opacity="0.79"></path>
        <path d="M1218 696L1160 754" opacity="0.82"></path>
        <path d="M1218 696L1276 754" opacity="0.86"></path>
        <path d="M1276 696L1334 754" opacity="0.9"></path>
        <path d="M1392 696L1334 754" opacity="0.94"></path>
        <path d="M1450 696L1392 754" opacity="0.98"></path>
        <path d="M0 754L58 812" opacity="0.05"></path>
        <path d="M58 754L116 812" opacity="0.09"></path>
        <path d="M174 754L116 812" opacity="0.13"></path>
        <path d="M232 754L174 812" opacity="0.17"></path>
        <path d="M232 754L290 812" opacity="0.2"></path>
        <path d="M348 754L290 812" opacity="0.24"></path>
        <path d="M348 754L406 812" opacity="0.28"></path>
        <path d="M406 754L464 812" opacity="0.32"></path>
        <path d="M464 754L522 812" opacity="0.36"></path>
        <path d="M522 754L580 812" opacity="0.4"></path>
        <path d="M580 754L638 812" opacity="0.44"></path>
        <path d="M638 754L696 812" opacity="0.48"></path>
        <path d="M754 754L696 812" opacity="0.51"></path>
        <path d="M812 754L754 812" opacity="0.55"></path>
        <path d="M870 754L812 812" opacity="0.59"></path>
        <path d="M928 754L870 812" opacity="0.63"></path>
        <path d="M986 754L928 812" opacity="0.67"></path>
        <path d="M986 754L1044 812" opacity="0.71"></path>
        <path d="M1102 754L1044 812" opacity="0.75"></path>
        <path d="M1102 754L1160 812" opacity="0.79"></path>
        <path d="M1218 754L1160 812" opacity="0.82"></path>
        <path d="M1218 754L1276 812" opacity="0.86"></path>
        <path d="M1334 754L1276 812" opacity="0.9"></path>
        <path d="M1334 754L1392 812" opacity="0.94"></path>
        <path d="M1450 754L1392 812" opacity="0.98"></path>
      </g>
    </svg>